<?xml version="1.0" standalone="no"?>
<!DOCTYPE svg PUBLIC "-//W3C//DTD SVG 20010904//EN"
 "http://www.w3.org/TR/2001/REC-SVG-20010904/DTD/svg10.dtd">
<svg version="1.0" xmlns="http://www.w3.org/2000/svg"
 width="5906.000000pt" height="5906.000000pt" viewBox="0 0 5906.000000 5906.000000"
 preserveAspectRatio="xMidYMid meet">

<g transform="translate(0.000000,5906.000000) scale(0.100000,-0.100000)"
fill="#f6c200" stroke="none">
<path d="M29455 56695 c-32 -6 -611 -34 -940 -45 -428 -14 -559 -21 -915 -45
-744 -52 -1324 -105 -1640 -151 -709 -102 -1753 -282 -2200 -379 -1557 -338
-3115 -818 -4460 -1372 -1131 -467 -1764 -765 -2710 -1276 -837 -452 -1353
-762 -2130 -1276 -1188 -786 -2377 -1717 -3400 -2665 -447 -414 -1139 -1103
-1521 -1516 -730 -789 -1597 -1852 -2185 -2680 -1030 -1448 -1863 -2886 -2600
-4492 -1031 -2244 -1761 -4680 -2138 -7133 -93 -609 -119 -813 -185 -1465 -46
-454 -58 -606 -66 -850 -4 -96 -15 -319 -26 -495 -35 -588 -41 -869 -36 -1689
4 -719 7 -824 30 -1156 15 -201 29 -392 32 -425 2 -33 14 -168 25 -300 26
-317 27 -322 50 -600 130 -1522 503 -3395 1015 -5100 387 -1290 922 -2667
1499 -3859 53 -109 96 -200 96 -202 0 -10 420 -821 532 -1028 935 -1722 2033
-3309 3342 -4826 1736 -2012 3921 -3886 6116 -5245 870 -538 1444 -862 2185
-1233 613 -306 839 -411 1495 -697 1660 -722 3174 -1206 5081 -1625 203 -45
620 -124 1051 -200 395 -70 1299 -198 1723 -244 344 -38 392 -42 887 -71 54
-3 151 -17 215 -30 65 -14 201 -32 303 -40 102 -8 235 -20 295 -25 61 -5 513
-12 1005 -16 941 -6 1177 -1 1640 36 135 11 430 33 655 50 915 66 1179 96
2120 241 1921 296 3797 800 5680 1527 690 266 1451 603 1745 773 69 39 192
102 273 140 202 93 763 379 1037 529 1209 662 2247 1323 3250 2068 1776 1321
3315 2778 4746 4492 1010 1210 1976 2610 2741 3970 630 1121 1091 2075 1537
3178 1005 2486 1626 5042 1876 7722 44 477 62 773 91 1530 11 289 24 581 29
650 14 200 11 658 -5 922 -8 134 -24 428 -35 653 -47 937 -64 1177 -110 1550
-16 132 -39 326 -50 430 -71 655 -133 1044 -320 2027 -85 441 -114 580 -211
1008 -322 1418 -881 3103 -1507 4545 -368 849 -811 1740 -1260 2540 -555 987
-1185 1958 -1822 2805 -181 241 -687 899 -739 960 -24 29 -52 50 -75 57 -35
11 -38 10 -47 -15 -20 -52 -21 -81 -5 -348 9 -148 21 -350 26 -449 12 -200 22
-258 56 -326 12 -25 98 -149 190 -275 500 -683 783 -1099 1174 -1719 621 -988
1194 -2063 1735 -3255 475 -1047 954 -2367 1289 -3550 227 -800 485 -1926 600
-2615 103 -615 287 -2015 325 -2470 20 -235 53 -1029 81 -1927 15 -477 -14
-1484 -55 -1903 -8 -80 -33 -373 -65 -760 -60 -724 -116 -1163 -251 -1969
-240 -1438 -579 -2775 -1067 -4201 -399 -1166 -829 -2184 -1386 -3280 -560
-1100 -942 -1763 -1544 -2675 -673 -1021 -1211 -1729 -2118 -2786 -439 -512
-708 -800 -1308 -1400 -797 -796 -1355 -1295 -2201 -1969 -1491 -1186 -2882
-2079 -4580 -2941 -1309 -664 -2453 -1130 -3950 -1609 -701 -224 -1056 -316
-1625 -420 -162 -29 -441 -81 -619 -115 -178 -33 -394 -74 -480 -90 -86 -16
-298 -56 -471 -89 -173 -33 -441 -83 -595 -110 -154 -28 -406 -75 -560 -105
-724 -142 -976 -176 -1695 -230 -915 -69 -2458 -83 -3325 -31 -44 2 -127 7
-185 10 -622 34 -1550 129 -2240 230 -3197 468 -6256 1504 -9055 3068 -990
553 -1823 1087 -2755 1766 -544 397 -1224 940 -1795 1436 -814 706 -1868 1768
-2611 2630 -1268 1473 -2335 3010 -3236 4663 -1416 2598 -2383 5416 -2872
8367 -88 529 -227 1693 -261 2185 -84 1221 -95 1820 -60 3215 3 121 10 270 15
330 18 206 29 350 35 465 16 332 18 351 71 840 125 1154 248 1918 481 2985
746 3421 2219 6732 4285 9633 481 675 905 1212 1574 1992 496 579 1203 1318
1754 1835 1157 1086 2055 1817 3205 2612 1356 936 2901 1807 4255 2398 744
324 1603 664 2186 863 1491 511 3150 918 4639 1136 509 75 1793 217 2175 241
52 3 120 8 150 10 317 29 1110 56 1593 56 494 0 631 -4 1432 -41 524 -25 499
-23 980 -76 1454 -159 1942 -227 2695 -375 1667 -329 3183 -775 4760 -1402
648 -258 1008 -418 1925 -858 314 -150 342 -158 413 -121 40 22 354 321 394
376 59 82 25 126 -171 222 -1060 519 -1482 712 -2131 977 -1431 584 -2952
1054 -4454 1377 -198 42 -1015 197 -1316 249 -382 67 -1225 178 -1895 251 -99
11 -250 23 -335 26 -85 3 -272 14 -415 25 -143 10 -312 21 -375 25 -63 3 -121
8 -129 10 -7 2 -203 9 -435 14 -231 6 -459 15 -506 21 -89 10 -391 20 -425 14z"/>
<path d="M28825 54023 c-430 -13 -1692 -112 -2275 -179 -875 -100 -1818 -274
-2885 -534 -981 -238 -2193 -629 -3194 -1030 -1850 -740 -3634 -1717 -5208
-2852 -775 -559 -1324 -1004 -2188 -1773 -525 -467 -1259 -1201 -1779 -1780
-866 -962 -1639 -1965 -2306 -2990 -663 -1019 -1158 -1901 -1653 -2945 -579
-1223 -950 -2193 -1371 -3585 -348 -1153 -671 -2711 -800 -3860 -46 -407 -124
-1214 -146 -1510 -5 -77 -15 -205 -21 -285 -17 -209 -24 -2219 -10 -2460 7
-102 14 -205 16 -230 3 -25 16 -211 30 -415 80 -1179 176 -1905 406 -3075 348
-1772 931 -3597 1679 -5260 294 -654 559 -1178 922 -1825 480 -854 542 -959
806 -1370 884 -1370 1935 -2702 2947 -3734 300 -306 933 -933 1100 -1091 376
-354 1123 -985 1665 -1407 2739 -2128 6036 -3698 9415 -4482 1547 -359 3061
-563 4609 -622 378 -14 1663 -14 2061 0 870 31 1566 93 2535 227 1626 224
3343 656 4965 1252 2832 1039 5455 2600 7750 4612 348 306 1191 1102 1330
1256 44 49 154 166 245 259 261 269 634 681 956 1055 759 883 1502 1903 2176
2985 954 1532 1762 3228 2336 4905 39 113 78 225 87 250 22 61 181 565 244
770 183 604 381 1383 501 1978 115 565 174 907 270 1576 118 826 145 1088 207
2011 28 410 28 410 25 1425 -1 558 -5 1085 -8 1170 -4 138 -36 658 -49 815 -3
33 -12 152 -20 265 -36 489 -82 901 -156 1395 -163 1092 -364 2046 -640 3045
-50 179 -104 370 -120 425 -58 188 -238 760 -254 805 -9 25 -52 147 -95 271
-341 988 -827 2129 -1287 3029 -400 781 -953 1753 -1045 1835 l-43 39 -11
-123 c-18 -183 -23 -265 -34 -491 -15 -297 -48 -688 -100 -1160 -48 -446 -47
-612 5 -828 34 -141 68 -225 210 -522 768 -1607 1384 -3462 1746 -5260 235
-1164 351 -2087 440 -3500 6 -100 13 -588 14 -1140 l4 -965 -29 -355 c-142
-1739 -246 -2500 -506 -3685 -121 -548 -359 -1439 -525 -1955 -39 -124 -81
-254 -91 -290 -11 -36 -74 -218 -140 -404 -938 -2664 -2298 -5054 -4104 -7216
-657 -787 -1438 -1602 -2119 -2215 -1022 -917 -1631 -1404 -2570 -2051 -1745
-1204 -3663 -2164 -5680 -2842 -904 -304 -1456 -460 -2368 -666 -1174 -266
-2396 -438 -3627 -511 -833 -49 -1818 -57 -2550 -20 -58 3 -208 10 -335 16
-467 21 -1739 163 -2320 260 -1721 286 -3413 764 -4975 1404 -618 254 -1016
433 -1555 700 -1870 928 -3660 2145 -5220 3549 -567 510 -1171 1112 -1634
1626 -277 307 -312 347 -507 575 -1164 1363 -2114 2773 -2952 4380 -581 1115
-1141 2454 -1487 3556 -140 445 -169 544 -267 894 -377 1357 -614 2659 -742
4080 -19 209 -37 416 -40 460 -3 44 -10 143 -16 220 -31 421 -42 708 -47 1250
-8 881 13 1397 98 2320 115 1272 283 2263 599 3550 323 1314 860 2832 1449
4097 300 645 705 1414 1078 2047 383 649 946 1493 1406 2106 514 684 1126
1407 1768 2088 129 137 252 269 274 294 22 25 128 127 235 226 107 99 263 246
345 327 394 385 1085 984 1645 1426 834 658 1926 1391 2870 1926 1411 800
2940 1467 4445 1939 176 55 347 109 380 119 33 10 150 44 260 75 762 214 1385
360 2160 505 840 157 1888 281 2962 351 258 17 463 22 1089 26 746 5 1067 -1
1334 -27 52 -5 226 -16 385 -25 313 -17 355 -20 755 -66 500 -56 1267 -156
1530 -199 1404 -229 3000 -662 4377 -1189 257 -98 583 -232 999 -409 116 -50
236 -98 267 -107 111 -32 87 -54 653 600 314 363 337 391 358 432 43 86 32 94
-424 298 -1116 501 -2434 974 -3580 1284 -1024 277 -2130 505 -3030 625 -327
44 -1386 151 -1990 202 -276 23 -1824 41 -2295 27z"/>
<path d="M45568 53895 c-104 -17 -124 -22 -343 -87 -514 -152 -1065 -445
-1660 -883 -374 -276 -627 -491 -1080 -919 -636 -603 -1037 -1034 -1906 -2051
-524 -614 -804 -988 -1076 -1440 -51 -84 -298 -565 -566 -1100 -517 -1032
-511 -1020 -863 -1540 -723 -1066 -1099 -1660 -1521 -2400 -244 -428 -670
-1166 -796 -1380 -306 -518 -594 -940 -848 -1242 -105 -125 -149 -163 -239
-207 -82 -39 -123 -81 -188 -188 -107 -178 -142 -279 -142 -418 0 -160 44
-276 221 -580 218 -377 257 -471 230 -560 -12 -40 -14 -42 -44 -36 -101 20
-171 82 -323 286 -351 468 -426 652 -409 997 9 191 11 187 -78 178 -136 -13
-213 -60 -256 -155 -42 -92 -21 -289 69 -635 157 -608 499 -1220 1047 -1875
594 -709 1478 -1460 2708 -2300 438 -299 552 -388 758 -589 137 -134 150 -151
141 -175 -9 -22 -30 -20 -94 10 -30 14 -113 46 -183 70 -168 58 -215 82 -447
232 -1270 821 -2025 1418 -2795 2212 -463 478 -818 940 -1083 1412 -273 487
-446 982 -503 1442 -45 370 102 570 490 665 80 20 152 45 205 72 104 53 250
153 281 192 22 29 23 33 9 57 -23 38 -46 51 -214 125 -204 90 -234 100 -590
215 -553 178 -964 292 -1371 379 -693 149 -1147 208 -2124 276 -391 27 -440
21 -479 -60 -19 -39 -20 -93 -23 -2819 -3 -1977 -1 -2799 7 -2850 12 -80 49
-162 114 -253 52 -73 66 -115 66 -198 0 -70 -24 -128 -94 -230 -24 -36 -55
-91 -68 -123 l-23 -57 -3 -6190 c-1 -3404 1 -6287 6 -6405 8 -205 9 -218 35
-271 24 -49 137 -182 401 -469 23 -25 138 -153 256 -285 118 -132 282 -314
364 -405 544 -603 911 -1195 1100 -1778 95 -291 136 -504 143 -743 5 -140 2
-198 -12 -280 -42 -253 -149 -471 -314 -642 -158 -163 -328 -262 -561 -323
-118 -32 -372 -43 -527 -25 -250 31 -499 116 -682 235 -40 25 -99 60 -131 76
l-60 30 0 -63 c0 -61 2 -67 40 -110 43 -48 206 -139 340 -190 154 -58 240 -71
445 -70 208 2 225 -2 225 -57 0 -38 -39 -88 -255 -325 -253 -279 -357 -401
-483 -569 -132 -177 -223 -315 -262 -397 -62 -134 -60 -110 -64 -969 -2 -432
-1 -879 3 -993 l7 -208 87 -172 c48 -95 111 -208 139 -252 169 -257 397 -357
780 -342 107 4 168 12 240 30 195 51 388 155 504 272 94 95 136 179 169 340
14 66 25 123 25 127 0 18 53 66 77 71 88 17 170 -93 198 -265 35 -210 37 -220
66 -252 25 -28 32 -31 86 -30 69 1 167 29 318 91 419 171 666 436 826 888 89
252 173 474 218 576 82 183 206 346 341 448 173 130 327 165 402 91 57 -57 28
-118 -94 -196 -214 -138 -322 -325 -456 -796 -101 -355 -102 -356 -22 -395 73
-37 141 -45 315 -38 285 11 434 38 608 111 150 62 278 155 429 310 181 186
293 372 409 679 l53 140 6 210 c13 401 -8 480 -270 1025 -126 260 -151 323
-190 480 -60 237 -74 444 -45 647 81 573 436 1029 1031 1328 138 68 538 209
629 221 43 5 53 3 68 -14 38 -41 19 -56 -226 -176 -266 -130 -350 -183 -569
-359 -218 -174 -299 -248 -378 -347 -129 -162 -198 -287 -253 -455 -48 -146
-60 -228 -60 -400 0 -135 4 -180 27 -288 33 -160 84 -314 146 -442 57 -117
154 -281 145 -245 -3 14 -9 90 -12 170 -9 231 23 399 111 586 80 169 182 301
395 514 356 355 647 530 1021 614 278 61 731 70 1063 21 195 -30 543 -113 879
-211 668 -195 737 -209 1013 -209 230 0 333 13 553 66 183 44 307 91 507 188
460 224 869 525 1311 966 510 508 886 1050 1255 1810 466 960 837 2027 1069
3080 41 183 59 247 91 312 45 94 61 113 94 113 78 0 102 -177 64 -470 -32
-242 -124 -731 -189 -1010 -85 -362 -169 -652 -355 -1230 -88 -274 -127 -408
-126 -439 0 -24 3 -46 5 -49 11 -10 95 70 472 450 214 216 428 440 474 498
289 362 475 779 541 1212 27 176 36 479 19 674 -61 738 -294 1347 -1035 2699
-287 523 -513 1000 -639 1350 -68 186 -294 775 -388 1010 -338 841 -884 1590
-1648 2256 -128 112 -291 250 -669 564 -20 16 -234 194 -476 396 -436 362
-629 542 -704 655 -41 62 -93 189 -99 243 -4 35 -1 47 13 57 15 11 23 10 54
-5 54 -28 146 -99 241 -186 117 -107 205 -177 268 -214 29 -17 55 -31 59 -31
26 0 -166 693 -333 1205 -180 550 -424 980 -813 1434 -90 105 -275 296 -443
459 -104 100 -132 122 -156 122 -55 0 -69 -48 -47 -165 22 -117 63 -250 151
-491 129 -355 163 -525 117 -590 -47 -65 -160 -85 -237 -41 -48 27 -140 146
-233 301 -37 61 -109 177 -160 258 -587 927 -1059 2023 -1202 2793 -34 185
-43 305 -26 361 18 59 23 68 53 83 25 13 46 5 78 -31 44 -49 65 -102 139 -348
114 -379 232 -686 398 -1035 80 -169 104 -205 136 -205 13 0 17 12 19 63 2 34
7 181 13 327 23 608 23 612 0 840 -48 488 -93 1093 -106 1440 -3 80 -8 195
-11 255 -4 61 -9 427 -13 814 -4 506 -9 705 -17 708 -17 6 -114 -237 -204
-507 -128 -384 -186 -619 -255 -1020 -52 -304 -72 -396 -100 -458 -25 -54 -80
-132 -94 -132 -4 0 -17 20 -29 44 -73 151 -77 318 -17 771 59 445 87 552 355
1360 244 735 264 800 314 1000 74 297 122 582 151 890 34 372 148 1261 196
1535 41 234 127 527 266 900 100 269 262 637 358 815 24 44 118 233 208 420
234 484 256 520 591 960 609 802 986 1271 1515 1885 494 574 725 823 1296
1396 549 551 794 775 1235 1128 484 389 951 676 1430 881 330 141 513 186 755
186 229 0 424 -44 600 -134 102 -53 218 -167 371 -367 205 -268 316 -449 475
-775 273 -560 544 -1274 845 -2230 262 -828 468 -1722 608 -2632 120 -781 154
-1097 211 -1968 8 -132 20 -314 26 -405 16 -236 22 -1569 9 -1900 -5 -151 -21
-466 -35 -700 -27 -446 -33 -542 -65 -965 -11 -143 -22 -294 -25 -335 -3 -41
-8 -97 -10 -125 -53 -595 -56 -864 -11 -1044 19 -76 33 -180 51 -389 46 -523
89 -835 186 -1332 123 -631 153 -874 146 -1165 -7 -285 -46 -492 -133 -720
-66 -169 -299 -596 -484 -885 -345 -539 -622 -1100 -809 -1645 -50 -144 -58
-185 -36 -192 6 -2 66 113 134 254 118 247 176 343 206 343 35 0 45 -43 50
-205 5 -164 27 -340 70 -559 71 -365 90 -560 74 -771 -33 -433 -185 -736 -568
-1129 -157 -160 -286 -272 -566 -489 -715 -555 -925 -765 -1275 -1277 -224
-328 -330 -442 -664 -716 -120 -98 -280 -230 -355 -292 -205 -171 -197 -165
-226 -158 -32 8 -49 48 -41 101 6 41 203 672 281 899 25 71 43 131 42 133 -7
6 -127 -213 -183 -332 -73 -156 -117 -267 -199 -505 -97 -281 -109 -299 -174
-265 -41 21 -69 79 -92 189 -40 190 -35 404 16 682 34 182 71 322 160 594 42
129 76 248 77 263 1 26 -14 46 -34 47 -14 0 -78 -129 -129 -260 -29 -74 -72
-187 -96 -250 -25 -63 -71 -190 -104 -282 -61 -175 -90 -240 -133 -297 -14
-19 -33 -57 -42 -84 -25 -76 -15 -142 45 -279 29 -66 58 -152 67 -195 49 -257
145 -440 384 -727 l83 -99 28 86 c94 287 241 446 794 856 320 237 525 447 761
778 119 168 336 432 469 572 127 133 277 262 642 554 175 140 363 294 418 342
135 120 337 323 411 415 189 234 333 513 404 785 43 168 53 256 47 438 -5 183
-33 335 -152 827 -86 355 -98 429 -98 635 -1 343 53 493 289 800 228 296 474
637 547 757 168 278 288 591 348 908 21 110 24 154 24 370 0 218 -4 266 -29
435 -15 105 -50 298 -78 430 -154 745 -248 1328 -293 1805 -20 212 -13 604 14
785 53 354 124 1080 166 1710 3 50 10 144 16 210 18 223 28 716 29 1440 0 798
-16 1423 -45 1785 -2 30 -7 89 -10 130 -93 1156 -292 2299 -597 3425 -267 991
-741 2301 -1092 3020 -226 463 -439 784 -685 1033 -274 277 -540 438 -833 503
-117 27 -319 33 -440 14z m-9862 -15505 c106 -228 194 -444 194 -475 0 -41
-26 -60 -62 -46 -44 17 -169 273 -218 449 -32 114 -36 152 -19 184 11 20 13
20 45 -18 19 -21 46 -64 60 -94z m-3986 -1553 c81 -60 110 -106 110 -175 0
-89 -80 -164 -174 -164 -96 0 -206 102 -206 189 1 67 68 156 128 169 15 3 32
7 37 8 16 4 88 -14 105 -27z m3078 -1090 c183 -63 337 -207 437 -407 15 -30
37 -66 49 -78 43 -48 59 -50 291 -50 418 -1 1116 -22 1197 -36 279 -51 430
-268 430 -616 0 -349 -146 -626 -417 -795 -159 -100 -534 -238 -1025 -379
-335 -97 -521 -139 -798 -182 -187 -30 -245 -35 -327 -31 -361 18 -594 221
-595 518 0 137 30 257 116 459 80 190 76 216 -60 329 -216 180 -285 321 -273
556 21 400 245 668 615 735 26 5 101 7 167 6 97 -3 134 -9 193 -29z m2987
-2477 c542 -32 1082 -149 1517 -331 254 -106 593 -284 661 -348 31 -28 62 -80
53 -88 -9 -9 -141 26 -231 63 -49 20 -164 68 -255 106 -541 231 -859 323
-1335 385 -120 15 -215 18 -675 18 -593 0 -643 -4 -975 -70 -466 -94 -963
-307 -1485 -638 -437 -276 -947 -700 -1304 -1082 -617 -662 -1072 -1395 -1307
-2105 -70 -212 -98 -324 -138 -540 -17 -91 -40 -196 -51 -233 -19 -62 -23 -67
-50 -67 -24 0 -31 6 -45 44 -15 39 -16 61 -6 202 37 530 301 1222 720 1889
408 648 1035 1304 1723 1803 566 410 1064 669 1573 816 507 148 1058 208 1610
176z m987 -1535 c480 -48 933 -158 1368 -330 356 -141 673 -323 1085 -623 471
-344 913 -794 1277 -1302 513 -716 867 -1600 1032 -2575 69 -405 86 -652 82
-1150 -4 -417 -12 -537 -56 -875 -145 -1102 -535 -2090 -1178 -2985 -337 -468
-803 -944 -1252 -1277 -521 -387 -1120 -683 -1704 -842 -492 -135 -831 -181
-1331 -181 -416 0 -683 28 -1060 112 -615 136 -1122 351 -1634 691 -509 338
-983 782 -1361 1277 -663 867 -1104 2008 -1214 3145 -70 720 -52 1300 60 1925
177 981 577 1939 1126 2692 849 1165 2017 1948 3308 2217 247 52 450 78 790
100 109 7 512 -4 662 -19z m3702 -10846 c14 -40 -12 -81 -142 -224 -251 -276
-501 -503 -817 -742 -490 -369 -1120 -668 -1735 -823 -367 -92 -615 -124 -975
-125 -245 0 -275 2 -313 19 -31 14 -42 25 -42 42 0 41 81 57 465 94 454 44
777 107 1131 221 474 152 928 379 1345 670 296 207 526 406 838 725 159 162
175 175 204 172 24 -2 34 -10 41 -29z"/>
<path d="M35580 35079 c-246 -28 -253 -33 -306 -192 -47 -141 -80 -208 -143
-287 -137 -170 -307 -256 -585 -295 -60 -9 -124 -23 -144 -32 -62 -30 -148
-190 -194 -361 -23 -89 -29 -273 -10 -337 30 -103 109 -179 220 -211 115 -34
295 -60 352 -51 234 35 387 67 665 142 698 187 946 267 1161 374 230 115 321
197 398 361 51 108 67 179 73 321 9 215 -27 337 -129 438 -112 111 -228 135
-346 71 -82 -44 -142 -49 -260 -21 -106 25 -198 29 -377 17 -139 -9 -153 -6
-225 45 -34 25 -63 28 -150 18z"/>
<path d="M43110 27325 c-1 -11 -3 -153 -4 -315 -5 -476 -63 -967 -167 -1418
-213 -921 -621 -1782 -1174 -2482 -269 -340 -676 -744 -1011 -1006 -650 -506
-1517 -871 -2294 -964 -52 -6 -108 -13 -125 -15 -105 -14 -455 -26 -600 -20
-898 35 -1653 279 -2380 768 -262 177 -437 320 -674 552 -440 430 -791 921
-1072 1500 -208 428 -350 847 -475 1398 -45 197 -59 194 -49 -13 35 -747 186
-1453 453 -2125 411 -1034 1111 -1913 1994 -2503 602 -403 1314 -664 2058
-757 176 -22 600 -31 785 -16 910 73 1801 409 2539 959 721 538 1276 1204
1689 2028 563 1123 790 2318 671 3539 -17 184 -65 505 -99 680 -25 124 -62
245 -65 210z"/>
<path d="M44931 51769 c-44 -18 -365 -235 -413 -280 -25 -24 -50 -57 -54 -73
-15 -61 9 -84 391 -364 801 -586 1021 -755 1453 -1111 319 -263 328 -270 376
-278 34 -5 36 -4 36 23 0 46 -332 1010 -380 1104 -35 68 -127 153 -330 301
-102 75 -343 253 -535 395 -193 143 -367 267 -387 277 -39 18 -118 22 -157 6z"/>
<path d="M27845 50269 c-1030 -41 -1989 -137 -2740 -274 -1047 -192 -1979
-431 -2769 -711 -518 -184 -1474 -569 -2271 -914 -606 -262 -1384 -675 -1930
-1023 -1282 -818 -2280 -1709 -3201 -2857 -984 -1227 -1777 -2750 -2292 -4400
-350 -1120 -555 -2101 -731 -3490 -67 -533 -69 -596 -46 -1755 3 -126 12 -716
20 -1310 8 -594 20 -1141 26 -1215 6 -74 15 -490 20 -925 5 -434 13 -833 19
-885 5 -52 14 -491 20 -975 5 -484 13 -947 19 -1030 5 -82 12 -377 15 -655 6
-530 9 -643 27 -1065 6 -143 14 -447 18 -675 l6 -415 23 160 c28 200 40 306
152 1335 93 859 143 1308 229 2080 28 245 64 569 81 720 66 607 168 1108 310
1532 100 297 187 480 325 688 181 272 413 456 691 550 135 46 207 92 328 209
314 305 504 615 736 1196 131 329 203 586 350 1245 71 319 241 988 360 1415
21 77 70 257 109 401 83 312 121 415 161 444 15 11 30 20 33 20 12 0 30 -78
28 -125 -1 -27 -19 -187 -41 -355 -58 -446 -168 -1335 -175 -1410 -21 -240
-27 -369 -35 -805 -9 -547 -13 -592 -86 -954 -97 -485 -263 -870 -523 -1215
-104 -138 -310 -348 -466 -475 -371 -302 -598 -586 -805 -1006 -288 -586 -440
-1170 -480 -1850 -8 -128 -10 -536 -8 -1250 4 -1179 -1 -1079 77 -1476 73
-375 90 -563 87 -919 -4 -304 -17 -433 -72 -674 -136 -606 -524 -1180 -969
-1437 -47 -27 -88 -49 -91 -49 -19 0 -221 -111 -275 -151 -172 -127 -314 -328
-383 -541 -71 -219 -99 -426 -98 -723 1 -254 8 -309 67 -497 254 -815 714
-1470 1278 -1821 120 -74 344 -179 482 -226 127 -43 343 -92 485 -110 47 -6
103 -13 125 -16 22 -3 128 -8 235 -11 398 -13 784 36 1243 157 567 149 1159
213 1567 170 419 -45 715 -110 1030 -226 737 -271 1422 -852 1938 -1644 144
-220 170 -289 560 -1471 163 -496 355 -1101 691 -2175 54 -176 132 -423 171
-550 199 -635 209 -673 285 -1010 196 -868 591 -1592 1205 -2205 483 -483
1041 -859 1759 -1185 129 -59 262 -120 295 -137 64 -32 449 -252 796 -455 992
-578 1822 -1061 2235 -1301 284 -165 327 -188 450 -244 159 -73 335 -129 425
-135 72 -5 76 -4 100 22 l25 27 0 3511 c0 3333 -1 3514 -18 3544 -28 52 -67
81 -137 104 -250 82 -398 246 -456 505 -12 57 -15 106 -12 202 8 207 52 384
197 784 56 156 59 200 58 870 -1 333 -6 610 -10 614 -8 9 -34 -4 -282 -136
-425 -228 -638 -306 -938 -346 -374 -50 -814 46 -1106 240 -332 221 -590 622
-676 1050 -52 261 -57 514 -15 801 72 493 295 1045 638 1579 247 386 441 606
812 924 204 175 797 756 1007 986 457 501 798 990 905 1296 l33 95 3 13125 c1
9164 -1 13140 -8 13176 -12 55 -35 84 -85 106 -37 15 -811 20 -1140 7z m-6475
-18584 c718 -87 1316 -308 1920 -709 448 -298 868 -678 1305 -1181 281 -324
309 -366 529 -811 485 -977 790 -1863 925 -2694 65 -401 75 -522 76 -920 0
-373 -3 -413 -46 -674 -105 -630 -364 -1219 -754 -1711 -312 -394 -765 -777
-1300 -1100 -308 -186 -853 -438 -1288 -595 -331 -119 -433 -144 -727 -174
-344 -36 -502 -41 -1275 -41 -830 0 -889 3 -1390 66 -1025 130 -1871 429
-2515 889 -341 243 -676 582 -889 899 -210 312 -375 655 -495 1031 -144 448
-237 1039 -237 1513 -1 235 -8 316 -64 717 -53 382 -71 558 -86 840 -23 421
11 920 86 1290 154 754 482 1380 989 1885 303 301 623 523 1061 736 696 338
1490 541 2500 638 302 30 301 29 520 66 110 18 254 38 320 44 66 6 134 13 150
15 77 9 561 -4 685 -19z"/>
<path d="M42921 50028 c-37 -30 -238 -253 -602 -668 -283 -324 -291 -339 -207
-416 18 -17 196 -140 395 -273 199 -132 464 -315 590 -404 1164 -830 2376
-1882 3304 -2867 85 -91 225 -239 311 -330 85 -91 285 -316 443 -500 158 -184
328 -379 378 -434 l90 -98 14 26 c25 47 24 147 -2 546 -38 585 -61 872 -105
1301 -43 424 -51 461 -119 547 -48 60 -613 625 -841 841 -970 917 -2089 1814
-3152 2528 -375 251 -414 267 -497 201z"/>
<path d="M43925 44014 l-30 -25 38 17 c20 10 37 21 37 26 0 14 -14 8 -45 -18z"/>
<path d="M43802 43930 c-59 -39 -177 -158 -167 -168 2 -3 26 9 52 26 53 34
190 168 181 177 -3 3 -33 -13 -66 -35z"/>
<path d="M43519 43678 c-84 -58 -354 -321 -524 -508 -359 -396 -656 -813 -958
-1341 -55 -97 -228 -451 -282 -579 -216 -507 -368 -1037 -450 -1570 -32 -206
-39 -233 -75 -273 -39 -45 -80 -55 -245 -62 -547 -23 -1051 -170 -1421 -416
-79 -53 -146 -110 -245 -208 -337 -337 -562 -742 -691 -1241 -35 -136 -41
-173 -45 -302 -6 -148 1 -177 25 -123 7 14 21 79 33 143 45 252 98 411 219
657 127 261 319 534 510 726 157 158 305 260 550 378 290 139 572 214 910 241
181 15 297 7 342 -24 65 -42 70 -69 79 -365 12 -400 34 -561 168 -1217 162
-790 173 -863 173 -1124 1 -370 -73 -671 -250 -1020 -154 -305 -378 -587 -689
-870 -89 -82 -106 -115 -82 -159 23 -41 80 -40 151 3 194 116 496 429 670 692
282 425 412 860 411 1374 -1 301 -44 587 -167 1105 -96 407 -160 763 -186
1041 -14 156 -14 444 0 475 30 66 105 74 285 30 279 -69 559 -190 838 -365
162 -101 207 -120 207 -88 0 27 -84 101 -211 188 -281 193 -555 317 -878 399
-230 58 -262 98 -248 309 15 228 92 644 177 960 288 1071 845 2014 1719 2911
208 214 266 275 260 275 -3 0 -39 -23 -80 -52z"/>
<path d="M43974 37235 c21 -85 53 -212 86 -335 104 -382 171 -778 206 -1220
10 -119 10 -586 1 -700 -57 -678 -258 -1256 -590 -1695 -84 -110 -281 -304
-405 -398 -193 -148 -422 -272 -673 -366 -181 -67 -318 -102 -583 -145 -120
-20 -227 -41 -237 -47 -10 -5 -19 -20 -19 -33 0 -41 56 -48 285 -37 110 5 238
17 285 26 321 60 760 257 1040 466 104 78 301 268 382 368 267 332 463 783
557 1286 34 178 50 317 63 547 34 617 -83 1424 -302 2080 -27 80 -107 250 -96
203z"/>
<path d="M44830 33039 c-191 -19 -356 -77 -554 -197 -266 -162 -443 -319 -683
-608 -246 -296 -438 -600 -583 -927 -83 -185 -96 -249 -60 -282 40 -36 65 -9
158 175 164 326 230 442 355 630 157 235 314 429 491 606 177 176 362 314 543
403 458 226 927 161 1043 -146 13 -34 25 -96 29 -148 l7 -90 8 79 c21 201 -59
364 -218 441 -70 34 -152 53 -281 65 -121 11 -132 11 -255 -1z"/>
<path d="M46773 32669 c-18 -12 -30 -25 -27 -31 3 -5 19 3 35 18 42 41 40 44
-8 13z"/>
<path d="M46357 32258 c-50 -47 -127 -156 -127 -181 0 -10 177 189 191 215 17
32 -6 19 -64 -34z"/>
<path d="M46178 32008 c-54 -71 -93 -173 -43 -113 27 33 79 134 72 141 -2 3
-15 -10 -29 -28z"/>
<path d="M46057 31808 c-28 -38 -43 -65 -57 -105 -10 -28 -9 -27 20 6 31 36
75 120 67 128 -3 2 -16 -11 -30 -29z"/>
<path d="M36950 17926 c-230 -34 -390 -95 -590 -226 -111 -74 -148 -102 -294
-230 -233 -204 -355 -387 -450 -673 -87 -261 -148 -314 -308 -270 -27 7 -23
-18 23 -147 89 -251 124 -397 159 -659 58 -441 -6 -819 -198 -1158 -85 -152
-93 -169 -94 -204 -2 -65 41 -72 192 -34 232 59 435 179 611 362 131 136 205
244 306 446 97 194 147 329 312 839 219 675 304 871 529 1218 97 150 192 273
352 456 110 126 181 227 168 239 -2 2 -39 13 -83 24 -106 28 -488 38 -635 17z"/>
<path d="M34380 13753 c-14 -2 -149 -23 -300 -47 -151 -25 -307 -49 -346 -54
-39 -5 -83 -18 -98 -27 -58 -38 -60 -50 -67 -420 -7 -371 -22 -514 -80 -775
-72 -323 -166 -591 -319 -901 -81 -165 -79 -183 11 -94 178 176 420 500 641
860 282 458 597 1159 643 1428 6 37 6 37 -27 36 -18 -1 -44 -3 -58 -6z"/>
<path d="M33035 13702 c-61 -38 -363 -333 -374 -364 -17 -49 -14 -69 40 -234
65 -198 102 -349 134 -539 62 -379 68 -642 25 -1165 -15 -182 16 -170 123 45
232 466 376 965 432 1490 38 356 -2 622 -107 710 -81 69 -212 96 -273 57z"/>
</g>
</svg>
